<svg version="1.2" xmlns="http://www.w3.org/2000/svg" viewBox="0 0 4000 4000" width="4000" height="4000">
	<defs>
		<linearGradient id="g1" x2="1" gradientUnits="userSpaceOnUse" gradientTransform="matrix(-675.525,509.351,-405.25,-537.461,2190.346,2605.457)">
			<stop offset="0" stop-color="#00478f"/>
			<stop offset="1" stop-color="#29c4ff"/>
		</linearGradient>
		<linearGradient id="g2" x2="1" gradientUnits="userSpaceOnUse" gradientTransform="matrix(-558.478,745.456,-978.709,-733.226,2544.555,2662.906)">
			<stop offset="0" stop-color="#00478f"/>
			<stop offset="1" stop-color="#29c4ff"/>
		</linearGradient>
		<linearGradient id="g3" x2="1" gradientUnits="userSpaceOnUse" gradientTransform="matrix(-164.658,641.671,-1367.182,-350.829,2905.89,2511.203)">
			<stop offset="0" stop-color="#00478f"/>
			<stop offset="1" stop-color="#29c4ff"/>
		</linearGradient>
		<linearGradient id="g4" x2="1" gradientUnits="userSpaceOnUse" gradientTransform="matrix(99.683,1091.515,-1501.553,137.13,3065.518,891.533)">
			<stop offset="0" stop-color="#ffce4b"/>
			<stop offset="1" stop-color="#d3226f"/>
		</linearGradient>
		<linearGradient id="g5" x2="1" gradientUnits="userSpaceOnUse" gradientTransform="matrix(42.484,396.724,-1072.545,114.855,2416.136,1804.034)">
			<stop offset="0" stop-color="#00478f"/>
			<stop offset="1" stop-color="#51f4e9"/>
		</linearGradient>
		<linearGradient id="g6" x2="1" gradientUnits="userSpaceOnUse" gradientTransform="matrix(88.833,633.49,-1565.159,219.478,2696.428,1647.001)">
			<stop offset="0" stop-color="#00478f"/>
			<stop offset="1" stop-color="#29c4ff"/>
		</linearGradient>
		<linearGradient id="g7" x2="1" gradientUnits="userSpaceOnUse" gradientTransform="matrix(317.867,632.764,-1357.785,682.079,2616.693,1172.732)">
			<stop offset="0" stop-color="#003780"/>
			<stop offset="1" stop-color="#b222d3"/>
		</linearGradient>
		<linearGradient id="g8" x2="1" gradientUnits="userSpaceOnUse" gradientTransform="matrix(400.847,267.651,-443.354,663.987,2532.392,1288.942)">
			<stop offset="0" stop-color="#4e046d"/>
			<stop offset="1" stop-color="#ff8bc7"/>
		</linearGradient>
		<linearGradient id="g9" x2="1" gradientUnits="userSpaceOnUse" gradientTransform="matrix(813.248,729.991,-669.339,745.678,2295.75,1145.807)">
			<stop offset="0" stop-color="#4e046d"/>
			<stop offset="1" stop-color="#ff8bc7"/>
		</linearGradient>
		<linearGradient id="g10" x2="1" gradientUnits="userSpaceOnUse" gradientTransform="matrix(611.32,311.394,-183.293,359.836,2533.764,1225.947)">
			<stop offset="0" stop-color="#b91c58"/>
			<stop offset="1" stop-color="#f95c97"/>
		</linearGradient>
		<linearGradient id="g11" x2="1" gradientUnits="userSpaceOnUse" gradientTransform="matrix(1001.807,186.893,-85.277,457.111,2271.436,1041.185)">
			<stop offset="0" stop-color="#b91c58"/>
			<stop offset="1" stop-color="#ff8bc7"/>
		</linearGradient>
		<linearGradient id="g12" x2="1" gradientUnits="userSpaceOnUse" gradientTransform="matrix(-686.802,-120.359,40.199,-229.388,2952.975,1385.126)">
			<stop offset="0" stop-color="#ffce4b"/>
			<stop offset="1" stop-color="#d3226f"/>
		</linearGradient>
		<linearGradient id="g13" x2="1" gradientUnits="userSpaceOnUse" gradientTransform="matrix(421.159,-1074.085,823.114,322.751,1139.2,1857.671)">
			<stop offset="0" stop-color="#00478f"/>
			<stop offset="1" stop-color="#c11fda"/>
		</linearGradient>
		<linearGradient id="g14" x2="1" gradientUnits="userSpaceOnUse" gradientTransform="matrix(-958.79,-94.684,41.495,-420.182,2973.068,1296.281)">
			<stop offset="0" stop-color="#ffce4b"/>
			<stop offset="1" stop-color="#d3226f"/>
		</linearGradient>
	</defs>
	<style>
		.s0 { fill: url(#g1) } 
		.s1 { fill: url(#g2) } 
		.s2 { fill: url(#g3) } 
		.s3 { fill: url(#g4) } 
		.s4 { fill: #990038 } 
		.s5 { fill: none;stroke: #231916;stroke-miterlimit:22.9256;stroke-width: .6 } 
		.s6 { fill: url(#g5) } 
		.s7 { fill: url(#g6) } 
		.s8 { fill: url(#g7) } 
		.s9 { fill: url(#g8) } 
		.s10 { fill: url(#g9) } 
		.s11 { fill: url(#g10) } 
		.s12 { fill: url(#g11) } 
		.s13 { fill: url(#g12) } 
		.s14 { fill: url(#g13) } 
		.s15 { fill: url(#g14) } 
		.s16 { fill: #102770 } 
		.s17 { fill: #231916 } 
	</style>
	<g id="Layer 1">
		<g id="&lt;Group&gt;">
			<g id="&lt;Clip Group&gt;">
				<path id="&lt;Path&gt;" class="s0" d="m1541.06 2678.25h676.96v-538.61h-676.96z"/>
			</g>
			<g id="&lt;Clip Group&gt;">
				<path id="&lt;Path&gt;" class="s1" d="m1699.69 2837.78h524.18v-688.2h-524.18z"/>
			</g>
			<g id="&lt;Clip Group&gt;">
				<path id="&lt;Path&gt;" class="s2" d="m1932.44 2902.02h315.24v-671.66h-315.24z"/>
			</g>
			<g id="&lt;Clip Group&gt;">
				<path id="&lt;Path&gt;" class="s3" d="m989.29 2879.53h1436.38v-1975.98h-1436.38z"/>
			</g>
			<path id="&lt;Path&gt;" fill-rule="evenodd" class="s4" d="m2114.99 2814.79c160.9-417.13-191.05-603.06-505.35-715.17-368.35-131.4-312.55-403.89-442.09-469.35-64.05-32.37-132.12 0.04-168.58 65.54 0 0 131.02-423.7 666.57 55.42 0 0 743.57 333.06 449.45 1063.56z"/>
			<path id="&lt;Path&gt;" class="s5" d="m1227.33 1690.63c364.11 354.28 660.04-997.41 1674.34-857.07-977.01 97.7-931.95 1222.78-1448.9 1186.55"/>
			<g id="&lt;Clip Group&gt;">
				<path id="&lt;Path&gt;" class="s6" d="m1690.15 2153.92h171.8v-464.45h-171.8z"/>
			</g>
			<g id="&lt;Clip Group&gt;">
				<path id="&lt;Path&gt;" class="s7" d="m1754.38 2183.49h260.94v-644.69h-260.94z"/>
			</g>
			<g id="&lt;Clip Group&gt;">
				<path id="&lt;Path&gt;" class="s8" d="m1876.43 2176.16h320.69v-688.14h-320.69z"/>
			</g>
			<g id="&lt;Clip Group&gt;">
				<path id="&lt;Path&gt;" class="s9" d="m1949.07 2166.19h435.85v-721.96h-435.85z"/>
			</g>
			<g id="&lt;Clip Group&gt;">
				<path id="&lt;Path&gt;" class="s10" d="m1970.68 2049.75h686v-629h-686z"/>
			</g>
			<g id="&lt;Clip Group&gt;">
				<path id="&lt;Path&gt;" class="s11" d="m1991.7 1843.03h958.83v-564.39h-958.83z"/>
			</g>
			<g id="&lt;Clip Group&gt;">
				<path id="&lt;Path&gt;" class="s12" d="m2045.4 1592.56h1043.16v-475.98h-1043.16z"/>
			</g>
			<g id="&lt;Clip Group&gt;">
				<path id="&lt;Path&gt;" class="s13" d="m2104.94 1308.53h925.15v-308.99h-925.15z"/>
			</g>
			<g id="&lt;Clip Group&gt;">
				<path id="&lt;Path&gt;" class="s14" d="m1227.33 2034.83h1674.34v-1283.11h-1674.34z"/>
			</g>
			<g id="&lt;Clip Group&gt;">
				<path id="&lt;Path&gt;" class="s15" d="m2156.83 1252.94h934.23v-409.41h-934.23z"/>
			</g>
			<path id="&lt;Path&gt;" fill-rule="evenodd" class="s16" d="m1823.83 1538.8c-331.44 510.57-525.55 299.94-525.55 299.94 31.54 60.92 75.82 125.5 154.49 181.38 210.03 14.71 327.29-162.26 458.01-384.14 191.03-324.25 410.82-744.41 990.89-802.42-675.26-8.06-1077.84 705.24-1077.84 705.24z"/>
			<path id="&lt;Compound Path&gt;" class="s17" d="m2900.81 3293.12h16.18v-213.96h-20.15l-80.88 124.68-81.79-124.68c-7.94 0-11.6 0-19.54 0v213.96h16.48v-190.1l82.41 125.29h5.49l81.8-125.29zm-247.52-213.95v132.77c0 91.56-131.24 91.86-131.24 0v-132.77h-16.18v132.77c0 112.01 163.59 111.7 163.59 0v-132.77zm-188.62 33.57c-21.06-31.43-47.61-36.32-78.13-36.32-35.1 0-82.1 14.04-81.19 59.21 0 39.38 39.99 47.31 79.05 54.94 35.1 6.72 70.51 13.74 70.2 45.78 0 37.85-41.81 45.17-68.06 45.17-26.25 0-59.82-12.81-72.94-38.76l-14.66 7.33c16.49 32.66 54.33 46.39 87.6 46.39 35.71 0 84.24-11.6 84.54-59.82 0-46.09-42.73-53.41-83.93-61.35-36.01-6.71-65.31-13.12-65.31-40.29 0-34.18 39.67-43.34 64.7-43.34 24.11 0.31 49.14 3.97 64.7 29zm-257.9 106.52c92.79 0 92.79-140.09 0-140.09-31.13 0-62.57 0-93.7 0v213.95h16.49v-73.86zm0-124.83c71.11 0 71.11 109.87 0 109.87h-77.22v-109.87zm-140.7 198.69v-213.95h-16.18v213.95zm-160.84 0h40.28v-213.34h-46.08l-66.84 91.71-66.84-91.71h-46.4v213.34h40.29v-155.1l68.06 92.94h7.94l69.59-92.63zm-217.31-39.68h-119.95v-48.22h115.67v-37.54h-115.67v-49.45h119.95v-39.07h-159.93c0 71.32 0 142.84 0 213.96h159.93zm-175.8 36.93l-64.71-72.95c40.6-8.24 54.02-37.84 54.02-67.3 0-37.08-26.55-70.65-76.91-70.96-33.88 0.31-67.75 0-101.63 0v213.95h40.29v-71.42h38.76l62.26 71.42h47.92zm-87.6-173.66c25.33 0 36.63 17.14 36.63 34.34 0 17.19-10.99 34.33-36.63 34.33h-61.34v-68.67zm-241.12-41.51c-73.86 0-109.88 56.46-109.88 112.62 0 56.16 34.8 110.18 109.88 110.18 75.08 0 108.96-55.24 109.57-110.48 0.61-55.86-36.01-112.32-109.57-112.32zm0 36.63c50.36 0 70.5 40.28 69.89 76.3-0.61 35.1-19.53 72.94-69.89 72.94-50.36 0-69.28-37.54-70.2-72.64-0.91-36.01 19.84-76.6 70.2-76.6zm-272.55-32.66v213.95h150.16v-37.24h-109.87v-176.71z"/>
		</g>
	</g>
</svg>